<?xml version="1.0" standalone="no"?>
<!DOCTYPE svg PUBLIC "-//W3C//DTD SVG 20010904//EN"
 "http://www.w3.org/TR/2001/REC-SVG-20010904/DTD/svg10.dtd">
<svg version="1.0" xmlns="http://www.w3.org/2000/svg"
 width="600.000000pt" height="114.000000pt" viewBox="0 0 600.000000 114.000000"
 preserveAspectRatio="xMidYMid meet">

<g transform="translate(0.000000,114.000000) scale(0.100000,-0.100000)"
fill="#DC2626" stroke="none">
<path d="M709 1051 c-20 -10 -46 -25 -57 -33 -18 -12 -32 -13 -77 -5 -39 7
-74 7 -116 -1 -54 -10 -63 -9 -95 10 -50 29 -150 36 -199 13 -54 -26 -75 -66
-75 -145 0 -49 6 -75 23 -105 22 -39 22 -41 5 -85 -25 -67 -24 -203 3 -275 21
-56 74 -135 95 -142 6 -2 94 93 195 212 l184 215 0 89 c0 83 2 92 30 133 23
32 48 52 102 78 40 19 72 41 73 48 0 18 -49 14 -91 -7z m-391 -56 c53 -23 111
-83 123 -128 7 -28 7 -53 -1 -88 -11 -44 -10 -51 10 -79 21 -29 21 -32 5 -50
-16 -18 -18 -17 -44 12 -24 27 -36 32 -84 34 -63 3 -100 19 -138 61 -78 84
-80 199 -4 241 29 16 90 14 133 -3z m-71 -467 c-20 -15 -24 -15 -39 -2 -15 15
-15 17 0 33 16 16 19 16 39 2 l22 -16 -22 -17z"/>
<path d="M731 933 c-82 -100 -94 -123 -63 -123 21 1 176 195 167 210 -12 20
-25 9 -104 -87z"/>
<path d="M799 885 c-70 -91 -86 -122 -64 -127 12 -3 165 191 165 209 0 33 -34
5 -101 -82z"/>
<path d="M925 909 c-22 -128 -114 -218 -222 -219 -28 0 -49 -6 -61 -18 -10
-10 -75 -102 -146 -205 -144 -211 -215 -290 -276 -308 -29 -9 -40 -18 -40 -32
0 -17 5 -19 37 -14 21 4 58 21 82 38 l44 31 63 -16 c81 -20 150 -20 227 0 l62
17 45 -32 c25 -17 62 -34 83 -38 33 -5 37 -3 37 15 0 16 -10 24 -42 34 -54 15
-132 92 -210 207 l-57 83 22 34 22 34 40 -42 c22 -24 72 -79 112 -123 l71 -80
26 25 c15 13 41 53 58 88 40 82 50 199 24 296 -17 62 -17 62 8 116 29 62 36
150 12 150 -9 0 -17 -16 -21 -41z m-88 -381 c-19 -15 -22 -15 -43 0 -21 16
-21 17 -3 24 10 4 19 12 19 18 0 6 11 3 24 -7 l25 -18 -22 -17z m-303 -254
c13 -5 14 -9 5 -20 -9 -11 -15 -11 -25 -3 -8 6 -11 15 -8 20 6 11 8 11 28 3z"/>
<path d="M1188 923 c-2 -5 -1 -161 2 -348 l5 -340 135 -3 c75 -1 154 1 175 6
38 7 41 10 62 73 12 36 32 112 43 169 36 171 14 411 -40 440 -22 12 -377 14
-382 3z m294 -103 c23 -28 48 -113 48 -161 0 -98 -58 -314 -89 -333 -6 -4 -42
-10 -81 -13 l-70 -6 0 159 c0 87 3 210 7 273 l6 114 81 -6 c67 -4 84 -9 98
-27z"/>
<path d="M1757 920 c-20 -4 -39 -9 -40 -11 -2 -2 1 -156 6 -341 l10 -338 42 0
42 0 6 248 c4 136 7 293 7 350 0 113 5 107 -73 92z"/>
<path d="M1930 915 c-17 -20 -35 -135 -26 -170 4 -20 49 -72 140 -160 74 -71
142 -142 151 -157 20 -33 13 -83 -15 -98 -10 -5 -69 -13 -131 -16 -64 -4 -117
-12 -121 -18 -4 -6 -8 -23 -8 -38 l0 -28 139 0 c173 0 229 7 241 31 17 30 32
167 21 186 -5 10 -73 81 -150 158 -119 119 -141 145 -141 171 0 59 15 67 141
72 63 2 117 7 120 11 4 3 10 21 14 39 l7 32 -185 0 c-149 0 -187 -3 -197 -15z"/>
<path d="M2400 579 l0 -350 43 3 42 3 7 123 c4 68 9 126 11 129 9 8 131 23
195 23 l62 0 0 -57 c0 -32 3 -95 7 -140 l6 -83 43 0 44 0 0 350 0 350 -50 0
-50 0 0 -119 c0 -65 -3 -139 -6 -165 l-7 -46 -123 0 -124 0 0 113 c0 61 -3
136 -6 165 l-7 52 -43 0 -44 0 0 -351z"/>
<path d="M2997 918 c-70 -53 -54 -608 19 -669 12 -10 55 -14 164 -14 82 0 151
3 154 6 3 3 1 19 -4 36 -11 30 -12 31 -102 38 -50 4 -102 11 -114 15 -36 14
-48 75 -48 250 0 163 12 233 42 248 9 5 55 12 101 15 47 4 88 10 93 15 4 4 11
22 14 40 l7 32 -155 0 c-108 0 -159 -4 -171 -12z"/>
<path d="M3414 923 c-33 -6 -45 -66 -51 -253 -5 -163 5 -301 29 -383 15 -49
27 -52 214 -52 132 0 154 2 172 18 30 27 56 207 56 392 1 183 -14 262 -50 276
-24 9 -326 11 -370 2z m269 -92 c29 -11 35 -29 47 -137 9 -87 -2 -264 -21
-321 -14 -43 -34 -53 -111 -53 -116 0 -133 33 -133 250 1 154 15 243 44 260
21 12 142 13 174 1z"/>
<path d="M3874 913 c3 -10 37 -155 75 -323 38 -168 72 -317 76 -332 l7 -28 99
0 c54 0 99 2 99 4 0 2 24 111 54 242 58 253 77 318 120 402 l26 52 -58 0 -58
0 -38 -65 c-38 -66 -49 -112 -107 -467 -13 -79 -30 -102 -55 -76 -7 7 -24 76
-38 153 -28 152 -76 435 -76 448 0 4 -30 7 -66 7 -58 0 -65 -2 -60 -17z"/>
<path d="M4487 918 c-58 -43 -68 -473 -14 -636 15 -46 37 -51 226 -51 l133 -1
-7 38 c-4 20 -8 38 -9 39 -1 1 -47 7 -102 14 -54 6 -109 17 -121 25 -24 15
-43 69 -43 122 0 26 4 32 23 33 58 2 198 16 202 21 3 3 9 22 12 42 l6 36 -128
0 -128 0 7 77 c3 42 14 93 24 112 16 33 22 37 82 47 36 7 86 12 111 13 44 1
47 3 53 32 3 17 6 35 6 40 0 15 -313 11 -333 -3z"/>
<path d="M4896 643 c2 -159 7 -316 10 -350 l6 -63 39 0 39 0 0 85 c0 80 1 85
23 89 12 3 33 7 47 10 23 5 35 -6 104 -94 44 -55 85 -100 92 -100 26 0 65 24
60 37 -3 7 -30 48 -61 92 -30 43 -55 83 -55 89 0 5 19 15 43 21 75 19 72 12
72 193 0 206 -8 256 -41 269 -14 5 -106 9 -204 9 l-180 0 6 -287z m302 175
c17 -36 35 -184 27 -230 -6 -34 -11 -39 -61 -58 -30 -11 -79 -23 -109 -26
l-55 -7 0 155 c0 108 4 159 13 171 13 17 55 25 127 23 38 -1 47 -5 58 -28z"/>
<path d="M5390 905 c0 -48 40 -292 63 -382 25 -101 24 -100 150 -102 85 -1 90
-6 62 -61 -16 -30 -28 -35 -131 -45 l-61 -7 6 -36 6 -37 95 -3 c141 -5 157 0
170 50 35 127 59 269 105 606 l6 42 -54 0 -54 0 -12 -142 c-12 -133 -25 -228
-37 -270 -4 -12 -15 -18 -37 -18 -59 0 -108 13 -117 30 -15 28 -31 146 -38
275 l-7 120 -57 3 c-57 3 -58 2 -58 -23z"/>
</g>
</svg>
